<svg width="22" height="25" viewBox="0 0 22 25" fill="none" xmlns="http://www.w3.org/2000/svg">
<g filter="url(#filter0_d_119_2869)">
<path d="M13.5085 7.74873C13.6199 7.74873 13.7924 7.762 14.0258 7.78853C14.2646 7.80975 14.5352 7.86812 14.8377 7.96362C15.1401 8.05913 15.4478 8.213 15.7609 8.42524C16.0739 8.63748 16.3631 8.93462 16.6284 9.31665C16.6019 9.33257 16.5011 9.4042 16.326 9.53154C16.1562 9.65889 15.9625 9.8446 15.745 10.0887C15.5274 10.3274 15.3364 10.6325 15.1719 11.004C15.0127 11.3701 14.9332 11.8078 14.9332 12.3172C14.9332 12.9008 15.034 13.3943 15.2356 13.7976C15.4425 14.2008 15.6813 14.5271 15.9519 14.7765C16.2278 15.0259 16.4719 15.209 16.6841 15.3257C16.9017 15.4371 17.0184 15.4955 17.0343 15.5008C17.029 15.522 16.9892 15.6414 16.9149 15.8589C16.8407 16.0712 16.7239 16.3471 16.5648 16.6867C16.4109 17.0209 16.2092 17.3711 15.9599 17.7373C15.7317 18.0609 15.4956 18.3713 15.2515 18.6685C15.0127 18.9656 14.7501 19.207 14.4636 19.3927C14.1824 19.5837 13.864 19.6792 13.5085 19.6792C13.2379 19.6792 13.0071 19.6474 12.8161 19.5837C12.6251 19.5201 12.442 19.4458 12.2669 19.3609C12.0971 19.2813 11.9087 19.2097 11.7018 19.146C11.4949 19.0823 11.2375 19.0505 10.9298 19.0505C10.5265 19.0505 10.1896 19.1035 9.919 19.2097C9.6537 19.3211 9.40167 19.4299 9.1629 19.536C8.92413 19.6421 8.64291 19.6952 8.31924 19.6952C7.82579 19.6952 7.3907 19.4988 7.01397 19.1062C6.64255 18.7136 6.26052 18.244 5.86788 17.6975C5.56544 17.2624 5.28952 16.761 5.04014 16.1932C4.79076 15.6255 4.59179 15.0232 4.44322 14.3865C4.29465 13.7498 4.22037 13.1131 4.22037 12.4764C4.22037 11.4576 4.41404 10.6007 4.80137 9.90561C5.18871 9.21053 5.68482 8.68524 6.2897 8.32974C6.89459 7.97423 7.52335 7.79648 8.17598 7.79648C8.52087 7.79648 8.84454 7.8522 9.14698 7.96362C9.45473 8.07505 9.74125 8.18913 10.0065 8.30586C10.2718 8.41728 10.5133 8.473 10.7308 8.473C10.9377 8.473 11.1818 8.41463 11.463 8.2979C11.7443 8.17586 12.0547 8.05382 12.3942 7.93179C12.7391 7.80975 13.1106 7.74873 13.5085 7.74873ZM12.9514 6.45937C12.6861 6.78304 12.3518 7.05099 11.9485 7.26323C11.5506 7.47547 11.1739 7.58159 10.8184 7.58159C10.7441 7.58159 10.6725 7.57363 10.6035 7.55771C10.5982 7.53649 10.5902 7.49935 10.5796 7.44629C10.5743 7.39323 10.5716 7.33486 10.5716 7.27119C10.5716 6.86794 10.6592 6.47529 10.8343 6.09326C11.0094 5.71123 11.211 5.39287 11.4392 5.13818C11.7204 4.80391 12.0759 4.52534 12.5057 4.30249C12.9408 4.07964 13.3573 3.96025 13.7552 3.94434C13.7711 4.03454 13.7791 4.138 13.7791 4.25474C13.7791 4.6633 13.7022 5.06125 13.5483 5.44858C13.3944 5.83062 13.1954 6.16755 12.9514 6.45937Z" fill="white"/>
</g>
<defs>
<filter id="filter0_d_119_2869" x="0.220367" y="0.944336" width="20.814" height="23.751" filterUnits="userSpaceOnUse" color-interpolation-filters="sRGB">
<feFlood flood-opacity="0" result="BackgroundImageFix"/>
<feColorMatrix in="SourceAlpha" type="matrix" values="0 0 0 0 0 0 0 0 0 0 0 0 0 0 0 0 0 0 127 0" result="hardAlpha"/>
<feOffset dy="1"/>
<feGaussianBlur stdDeviation="2"/>
<feComposite in2="hardAlpha" operator="out"/>
<feColorMatrix type="matrix" values="0 0 0 0 0 0 0 0 0 0 0 0 0 0 0 0 0 0 0.2 0"/>
<feBlend mode="normal" in2="BackgroundImageFix" result="effect1_dropShadow_119_2869"/>
<feBlend mode="normal" in="SourceGraphic" in2="effect1_dropShadow_119_2869" result="shape"/>
</filter>
</defs>
</svg>
